<?xml version="1.0" encoding="UTF-8" standalone="no"?>
<!-- Generator: Adobe Illustrator 12.0.0, SVG Export Plug-In . SVG Version: 6.00 Build 51448)  -->

<svg
   xmlns:dc="http://purl.org/dc/elements/1.1/"
   xmlns:cc="http://creativecommons.org/ns#"
   xmlns:rdf="http://www.w3.org/1999/02/22-rdf-syntax-ns#"
   xmlns:svg="http://www.w3.org/2000/svg"
   xmlns="http://www.w3.org/2000/svg"
   xmlns:xlink="http://www.w3.org/1999/xlink"
   xmlns:sodipodi="http://sodipodi.sourceforge.net/DTD/sodipodi-0.dtd"
   xmlns:inkscape="http://www.inkscape.org/namespaces/inkscape"
   height="154.308"
   id="Layer_1"
   inkscape:version="0.47 r22583"
   sodipodi:docname="ipoo.svg"
   sodipodi:version="0.32"
   style="overflow:visible;enable-background:new 0 0 273.889 154.308;"
   version="1.1"
   viewBox="0 0 273.889 154.308"
   width="273.889"
   xml:space="preserve"><metadata
   id="metadata3"><rdf:RDF><cc:Work
       rdf:about=""><dc:title>Mostriciattolo2</dc:title><dc:description /><dc:subject><rdf:Bag><rdf:li>architetto francesco rollandin</rdf:li><rdf:li>insect</rdf:li></rdf:Bag></dc:subject><dc:publisher><cc:Agent
           rdf:about="http://www.openclipart.org/"><dc:title>Open Clip Art Library</dc:title></cc:Agent></dc:publisher><dc:creator><cc:Agent><dc:title>Architetto Francesco Rollandin</dc:title></cc:Agent></dc:creator><dc:rights><cc:Agent><dc:title>Architetto Francesco Rollandin</dc:title></cc:Agent></dc:rights><dc:date /><dc:format>image/svg+xml</dc:format><dc:type
         rdf:resource="http://purl.org/dc/dcmitype/StillImage" /><cc:license
         rdf:resource="http://web.resource.org/cc/PublicDomain" /><dc:language>en</dc:language></cc:Work><cc:License
       rdf:about="http://web.resource.org/cc/PublicDomain"><cc:permits
         rdf:resource="http://web.resource.org/cc/Reproduction" /><cc:permits
         rdf:resource="http://web.resource.org/cc/Distribution" /><cc:permits
         rdf:resource="http://web.resource.org/cc/DerivativeWorks" /></cc:License></rdf:RDF></metadata>
<defs
   id="defs592"><inkscape:perspective
     sodipodi:type="inkscape:persp3d"
     inkscape:vp_x="0 : 77.153999 : 1"
     inkscape:vp_y="0 : 1000 : 0"
     inkscape:vp_z="273.88901 : 77.153999 : 1"
     inkscape:persp3d-origin="136.9445 : 51.436 : 1"
     id="perspective301" /></defs>
<sodipodi:namedview
   bordercolor="#666666"
   borderopacity="1.0"
   id="base"
   inkscape:current-layer="Layer_1"
   inkscape:cx="147.97086"
   inkscape:cy="150.13815"
   inkscape:pageopacity="0.0"
   inkscape:pageshadow="2"
   inkscape:window-height="944"
   inkscape:window-width="1213"
   inkscape:window-x="1578"
   inkscape:window-y="10"
   inkscape:zoom="1.4560943"
   pagecolor="#ffffff"
   showgrid="false"
   inkscape:window-maximized="0" />































































































































































































































































































































































































































































































<path
   sodipodi:type="arc"
   style="color:#000000;fill:#96d6ec;fill-opacity:1;fill-rule:nonzero;stroke:#000000;stroke-width:2.4000001;stroke-linecap:butt;stroke-linejoin:miter;stroke-miterlimit:4;stroke-opacity:1;stroke-dasharray:none;stroke-dashoffset:0;marker:none;visibility:visible;display:inline;overflow:visible;enable-background:accumulate"
   id="path4543"
   sodipodi:cx="126.36544"
   sodipodi:cy="-92.928734"
   sodipodi:rx="74.857788"
   sodipodi:ry="74.857788"
   d="m 201.22323,-92.928734 a 74.857788,74.857788 0 1 1 -149.715578,0 74.857788,74.857788 0 1 1 149.715578,0 z"
   transform="matrix(0.91873392,0,0,0.91873392,16.450138,-12.359335)"
   inkscape:export-filename="/home/bernat/code/orange/ipoo/use4589.png"
   inkscape:export-xdpi="118.67"
   inkscape:export-ydpi="118.67" />













































































































<text
   xml:space="preserve"
   style="font-size:64.5105896px;font-style:normal;font-variant:normal;font-weight:normal;font-stretch:normal;text-indent:0;text-align:start;text-decoration:none;line-height:100%;letter-spacing:normal;word-spacing:normal;text-transform:none;direction:ltr;block-progression:tb;writing-mode:lr-tb;text-anchor:start;color:#000000;fill:#ffbf00;fill-opacity:1;fill-rule:nonzero;stroke:#000000;stroke-width:2.9000001;stroke-linecap:butt;stroke-linejoin:miter;stroke-miterlimit:4;stroke-opacity:1;stroke-dasharray:none;stroke-dashoffset:0;marker:none;visibility:visible;display:inline;overflow:visible;enable-background:accumulate;font-family:Arial Black;-inkscape-font-specification:'Arial Black,'"
   x="50.932224"
   y="110.47815"
   id="text3240"
   sodipodi:linespacing="100%"
   transform="scale(0.99341514,1.0066285)"
   inkscape:export-filename="/home/bernat/code/orange/ipoo/ipoo.png"
   inkscape:export-xdpi="118.67"
   inkscape:export-ydpi="118.67"><tspan
     sodipodi:role="line"
     id="tspan3242"
     x="50.932224"
     y="110.47815"
     style="stroke-width:2.9000001;stroke-miterlimit:4;stroke-dasharray:none">IP</tspan></text>

<g
   id="g4578"
   transform="translate(-211.13532,88.307258)"
   inkscape:export-filename="/home/bernat/code/orange/ipoo/ipoo.png"
   inkscape:export-xdpi="118.67"
   inkscape:export-ydpi="118.67"><path
     id="path2934"
     d="m 344.75788,-15.323872 c -1.49444,-6.197309 -2.66272,-13.913205 2.27128,-18.930937 10.57776,-8.177788 24.64829,-9.146009 37.51658,-8.51019 5.31251,-0.204949 10.80335,0.721394 14.96541,4.27523 5.82384,4.344082 10.22748,10.248226 15.66911,15.007666 3.15232,4.35993 0.81001,9.991338 -1.21823,14.2990029 -2.24679,4.078881 -1.25494,8.83022097 0.43104,12.894291 1.72483,5.458734 1.69454,12.8391191 -3.67967,16.2774721 -3.09545,2.609508 -7.03571,0.770508 -10.52292,1.508219 -7.42094,1.512071 -12.3074,7.791637 -18.13888,11.997279 -8.02402,4.290105 -17.34876,9.067418 -26.63049,6.042206 -7.02326,-2.752788 -9.68936,-10.876464 -9.92065,-17.832566 -0.75222,-7.042714 -0.077,-14.1280581 1.44055,-21.02062913 0.87781,-5.05040497 0.45622,-10.36281157 -1.83948,-14.99170287 l -0.17015,-0.508239 -0.1735,-0.507102 0,0 z"
     style="fill:#000000;fill-opacity:1;stroke:#ffffff;stroke-width:1px;stroke-linecap:butt;stroke-linejoin:miter;stroke-opacity:1" /><path
     sodipodi:type="arc"
     style="fill:#ffffff;fill-opacity:1;stroke:#000000;stroke-width:2.21796536;stroke-miterlimit:0;stroke-opacity:1;stroke-dasharray:none"
     id="path4531"
     sodipodi:cx="299.08777"
     sodipodi:cy="124.77695"
     sodipodi:rx="15.452296"
     sodipodi:ry="28.157516"
     d="m 314.54006,124.77695 c 0,15.55096 -6.91822,28.15751 -15.45229,28.15751 -8.53407,0 -15.4523,-12.60655 -15.4523,-28.15751 0,-15.55097 6.91823,-28.157519 15.4523,-28.157519 8.53407,0 15.45229,12.606549 15.45229,28.157519 z"
     transform="matrix(0.78904297,-0.60576983,0.40030438,0.71892614,64.996948,90.571056)" /><path
     id="path313"
     d="m 341.97284,-3.952216 c -1.37749,-4.566922 -3.10582,-10.296722 0.48853,-14.332742 3.53823,-3.415483 9.12794,-1.286296 11.82646,2.07476 4.14897,4.36451 6.34384,10.883732 4.66843,16.706432 -1.62152,4.79513 -7.97527,5.47744 -11.43588,2.13399 -2.3785,-1.69305 -4.2615,-4.00906 -5.54754,-6.58244 z"
     style="fill:#ffbf00;stroke:#000000;stroke-width:2.9000001;stroke-miterlimit:4;stroke-opacity:1;stroke-dasharray:none" /><path
     sodipodi:nodetypes="csssc"
     id="path3757"
     d="m 390.72442,-11.545151 c 4.29739,12.096662 0.4227,24.823247 -8.65435,28.425614 -9.07706,3.602367 -17.8589,-4.313771 -22.15629,-16.410433 -4.29739,-12.09667 -2.483,-23.793105 6.59405,-27.395472 9.07706,-3.602367 19.9192,3.283621 24.21659,15.380291 z"
     style="fill:#ffffff;fill-opacity:1;stroke:#000000;stroke-width:1.99586809;stroke-miterlimit:0;stroke-opacity:1" /><path
     id="path349"
     d="m 362.2833,-5.819136 c -1.6279,-5.327385 -2.28586,-12.268272 2.41641,-16.277357 4.62543,-3.952052 12.12868,-2.814553 15.87369,1.817734 5.17325,5.421299 6.79797,15.089293 1.34422,20.874663 -4.36495,4.71094 -12.09547,3.05196 -16.10634,-1.24791 -1.53621,-1.4654 -2.4808,-3.35673 -3.52798,-5.16713 z"
     style="fill:#ffbf00;stroke:#000000;stroke-width:2.9000001;stroke-miterlimit:4;stroke-opacity:1;stroke-dasharray:none" /><path
     sodipodi:nodetypes="ccs"
     id="path4534"
     d="m 404.50678,-17.040794 c 2.52543,3.917333 -0.66667,6.400894 -3.43384,6.867687 -3.03433,0 -5.15077,-0.819762 -5.15077,-3.94892"
     style="fill:#000000;fill-opacity:1;stroke:#ffffff;stroke-width:1.99586797;stroke-miterlimit:0;stroke-opacity:1"
     transform="translate(-4.9758576e-6,0)" /><path
     style="font-size:medium;font-style:normal;font-variant:normal;font-weight:normal;font-stretch:normal;text-indent:0;text-align:start;text-decoration:none;line-height:normal;letter-spacing:normal;word-spacing:normal;text-transform:none;direction:ltr;block-progression:tb;writing-mode:lr-tb;text-anchor:start;color:#000000;fill:#ffffff;fill-opacity:1;stroke:none;stroke-width:2.5;marker:none;visibility:visible;display:inline;overflow:visible;enable-background:accumulate;font-family:Bitstream Vera Sans;-inkscape-font-specification:Bitstream Vera Sans"
     d="m 401.90625,-10.96875 -2.34375,0.90625 c 3.4556,8.8208833 2.30558,17.4253286 -1.71875,24.875 -4.02433,7.449671 -9.92906,15.416081 -17.90735,19.216922 l 0.0324,0.533078 C 388.39734,30.547158 395.71624,23.987855 400.0313,16 c 4.31506,-7.9878546 5.60418,-17.4495243 1.875,-26.96875 z"
     id="path4539"
     sodipodi:nodetypes="ccsccsc" /><path
     sodipodi:nodetypes="cccccccscccccc"
     id="path4556"
     d="m 312.94043,-53.782713 c -4.40494,0.851081 -9.0132,2.791892 -11.59048,6.64033 -1.37652,2.089868 -1.21821,4.888656 0.0592,6.98467 1.5438,1.115027 3.57322,0.894603 4.99561,-0.297058 1.35072,-0.887309 1.89974,-1.969648 1.30687,-4.392786 0.0366,-2.238143 1.43446,-5.025791 3.24746,-5.696829 2.68015,-0.782454 5.98037,-0.321567 8.74612,0.13234 4.84328,0.659775 6.44579,1.526891 11.12762,2.917289 4.68183,1.390398 9.52927,3.061271 14.06376,4.842942 3.86048,1.582908 7.69982,3.267578 11.28138,5.421364 1.35689,-1.251347 -1.20544,-1.574157 -1.9517,-2.285084 -9.67836,-5.203559 -17.21476,-10.216297 -27.78913,-13.225923 -3.53378,-0.93171 -9.82138,-1.053156 -13.49674,-1.041255 l 3e-5,0 z"
     style="font-size:medium;font-style:normal;font-variant:normal;font-weight:normal;font-stretch:normal;text-indent:0;text-align:start;text-decoration:none;line-height:normal;letter-spacing:normal;word-spacing:normal;text-transform:none;direction:ltr;block-progression:tb;writing-mode:lr-tb;text-anchor:start;color:#000000;fill:#ffbf00;fill-opacity:1;stroke:#000000;stroke-width:1.60000002;stroke-miterlimit:4;stroke-opacity:1;stroke-dasharray:none;marker:none;visibility:visible;display:inline;overflow:visible;enable-background:accumulate;font-family:Bitstream Vera Sans;-inkscape-font-specification:Bitstream Vera Sans" /><path
     style="font-size:medium;font-style:normal;font-variant:normal;font-weight:normal;font-stretch:normal;text-indent:0;text-align:start;text-decoration:none;line-height:normal;letter-spacing:normal;word-spacing:normal;text-transform:none;direction:ltr;block-progression:tb;writing-mode:lr-tb;text-anchor:start;color:#000000;fill:#ffbf00;fill-opacity:1;stroke:#000000;stroke-width:1.60000002;stroke-miterlimit:4;stroke-opacity:1;stroke-dasharray:none;marker:none;visibility:visible;display:inline;overflow:visible;enable-background:accumulate;font-family:Bitstream Vera Sans;-inkscape-font-specification:Bitstream Vera Sans"
     d="m 343.023,-71.375206 c -4.37298,-1.002451 -7.55142,3.03736 -11.46456,5.515289 -2.10392,1.354944 -3.09065,3.978805 -2.76969,6.412328 0.96121,1.643981 2.9065,2.26285 4.68924,1.747979 1.59414,-0.265477 2.53387,-1.033454 2.97126,-3.489422 0.93834,-2.032277 1.76562,-7.051922 3.69514,-6.932696 2.76769,0.367903 2.79022,-0.369016 5.13635,1.164307 8.32615,5.123084 15.61609,11.7568 22.47023,18.682444 2.89096,3.008531 4.14318,3.552091 6.54823,6.97 1.74696,-0.595943 0.74793,0.01535 0.3528,-0.936586 -6.74837,-8.672203 -13.98797,-16.110454 -22.44285,-23.138266 -2.85542,-2.280844 -5.81977,-4.520362 -9.18618,-5.99539 l 3e-5,1.3e-5 z"
     id="path4576"
     sodipodi:nodetypes="ccccccccccccc" /></g><use
   x="0"
   y="0"
   xlink:href="#g4578"
   id="use4589"
   transform="translate(-15.29128,-170.65191)"
   width="273.88901"
   height="154.308"
   inkscape:export-xdpi="118.67"
   inkscape:export-ydpi="118.67" /></svg>